<svg xmlns="http://www.w3.org/2000/svg" width="415" height="92" viewBox="0 0 415 92" role="img" aria-label="harmeets130922@gmail.com - best way to reach me"><defs><linearGradient id="bgg" x1="0" y1="0" x2="0" y2="1"><stop offset="0" stop-color="#14141a"/><stop offset="0.45" stop-color="#08080a"/><stop offset="1" stop-color="#101016"/></linearGradient><linearGradient id="accg" x1="0" y1="0" x2="0" y2="1"><stop offset="0" stop-color="#ffffff"/><stop offset="1" stop-color="#b8b8c4"/></linearGradient><linearGradient id="barg" x1="0" y1="0" x2="0" y2="1"><stop offset="0" stop-color="#ffffff"/><stop offset="1" stop-color="#5a5a66"/></linearGradient><linearGradient id="hotg" x1="0" y1="0" x2="0" y2="1"><stop offset="0" stop-color="#20202a"/><stop offset="1" stop-color="#101014"/></linearGradient></defs><rect width="415" height="92" fill="url(#bgg)"/><rect x="0.5" y="0.5" width="414" height="91" fill="#101014" stroke="#2a2a32"/><g transform="translate(22,30) scale(1.0833)"><path d="M24 5.457v13.909c0 .904-.732 1.636-1.636 1.636h-3.819V11.73L12 16.64l-6.545-4.91v9.273H1.636A1.636 1.636 0 0 1 0 19.366V5.457c0-2.023 2.309-3.178 3.927-1.964L5.455 4.64 12 9.548l6.545-4.91 1.528-1.145C21.69 2.28 24 3.434 24 5.457z" fill="#ffffff"/></g><text x="64" y="42" font-family="ui-monospace, SFMono-Regular, Menlo, Consolas, monospace" font-size="14" font-weight="700" fill="#f2f2f5">harmeets130922@gmail.com</text><text x="64" y="62" font-family="ui-monospace, SFMono-Regular, Menlo, Consolas, monospace" font-size="11" fill="#a8a8b4">best way to reach me</text></svg>